<?xml version="1.0" standalone="no"?>
<!DOCTYPE svg PUBLIC "-//W3C//DTD SVG 20010904//EN"
 "http://www.w3.org/TR/2001/REC-SVG-20010904/DTD/svg10.dtd">
<svg version="1.0" xmlns="http://www.w3.org/2000/svg"
 width="843.000000pt" height="375.000000pt" viewBox="0 0 843.000000 375.000000"
 preserveAspectRatio="xMidYMid meet">
<metadata>
Created by potrace 1.16, written by Peter Selinger 2001-2019
</metadata>
<g transform="translate(0.000000,375.000000) scale(0.100000,-0.100000)"
fill="#FFFFFF" stroke="none">
<path d="M1670 3747 c-3 -3 -30 -9 -60 -12 -83 -9 -223 -43 -335 -82 -117 -40
-379 -165 -460 -218 -60 -40 -194 -157 -316 -276 -164 -160 -307 -397 -393
-649 -89 -264 -112 -414 -103 -675 10 -269 44 -442 133 -658 44 -108 160 -324
213 -397 66 -92 171 -206 243 -267 242 -205 280 -231 443 -309 189 -90 380
-153 565 -185 119 -21 494 -18 600 4 295 63 520 157 743 310 89 60 347 306
423 402 135 169 279 474 333 702 11 45 22 86 24 90 12 19 22 211 22 403 -1
260 -29 413 -116 632 -242 609 -776 1041 -1441 1164 -82 15 -508 32 -518 21z
m358 -143 l72 -6 -86 -96 c-48 -54 -103 -118 -123 -144 -20 -26 -39 -47 -43
-48 -3 0 -46 55 -94 123 -48 67 -96 132 -106 144 l-20 21 43 6 c91 13 204 13
357 0z m-484 -154 c35 -47 100 -125 144 -175 l81 -90 -37 -33 c-50 -44 -325
-227 -442 -294 -220 -127 -617 -320 -625 -305 -1 1 -25 76 -55 167 -30 91 -64
188 -76 217 l-22 52 101 98 c206 200 444 344 732 444 102 36 111 37 123 21 7
-9 42 -55 76 -102z m867 74 c260 -82 496 -225 702 -424 l120 -116 -21 -41
c-24 -45 -55 -125 -109 -278 -20 -55 -37 -101 -38 -103 -3 -3 -307 123 -363
151 -117 59 -299 166 -417 246 -108 73 -335 243 -335 251 0 7 161 182 236 258
25 25 53 56 61 69 8 12 23 23 32 23 10 0 69 -16 132 -36z m-511 -465 c8 -9 35
-34 60 -55 l45 -39 -181 0 -181 0 44 30 c24 17 70 49 101 72 62 45 64 45 112
-8z m-1415 -324 c26 -77 56 -156 66 -177 l18 -36 -27 -10 c-177 -65 -342 -120
-342 -114 0 13 28 85 73 192 38 91 154 297 162 288 1 -2 24 -66 50 -143z
m1637 102 c176 -53 307 -133 450 -273 137 -134 198 -240 265 -459 24 -81 27
-106 27 -240 1 -181 -18 -260 -99 -432 -63 -133 -118 -207 -217 -295 -144
-128 -294 -211 -448 -248 -131 -31 -348 -29 -465 5 -307 89 -526 275 -669 567
-96 196 -122 368 -87 572 22 125 52 204 140 365 108 197 337 373 581 446 80
23 96 25 260 21 154 -3 185 -6 262 -29z m1244 -49 c51 -78 124 -229 155 -317
11 -30 19 -55 19 -56 0 -2 -26 8 -57 21 -32 12 -112 37 -178 55 -66 18 -122
34 -124 36 -12 8 116 333 131 333 4 0 28 -33 54 -72z m-2482 -386 c-34 -70
-67 -148 -74 -172 l-12 -45 -37 105 c-21 58 -43 115 -50 128 -11 20 -10 24 6
29 18 5 227 80 229 82 0 1 -28 -56 -62 -127z m2057 79 c50 -15 86 -30 82 -34
-4 -4 -21 -54 -39 -110 -25 -78 -34 -97 -40 -82 -9 25 -108 206 -131 241 -16
25 -16 25 12 18 15 -4 67 -19 116 -33z m-2287 -254 c18 -89 35 -182 37 -207
10 -107 3 -517 -9 -575 -7 -33 -20 -92 -28 -131 l-16 -72 -36 10 c-67 17 -286
79 -334 94 l-46 15 -21 77 c-67 250 -80 599 -30 793 9 36 11 38 137 84 70 25
156 56 192 67 36 11 74 23 85 28 13 5 23 3 28 -7 5 -8 23 -87 41 -176z m2659
138 c82 -25 174 -56 205 -69 l57 -22 14 -80 c18 -107 20 -485 3 -584 -7 -41
-23 -117 -34 -167 -21 -87 -24 -93 -52 -102 -36 -12 -350 -91 -381 -97 -19 -3
-24 4 -38 65 -44 182 -59 304 -59 481 0 156 4 192 31 329 44 217 70 303 90
297 9 -3 83 -26 164 -51z m-2333 -1143 c38 -57 63 -102 57 -99 -7 2 -74 26
-150 52 -109 38 -136 51 -133 64 3 9 15 66 26 126 12 61 24 121 27 135 4 21
13 10 55 -75 27 -55 80 -146 118 -203z m1991 121 c21 -65 39 -123 39 -129 0
-5 -37 -21 -82 -34 -46 -13 -112 -34 -147 -47 -35 -13 -65 -22 -67 -21 -1 2
24 44 57 93 32 50 80 130 105 178 25 49 48 86 51 83 3 -3 23 -58 44 -123z
m461 -241 c-33 -66 -68 -132 -79 -148 -11 -16 -35 -53 -53 -82 -23 -37 -35
-50 -41 -40 -4 7 -35 78 -69 157 -45 105 -59 146 -50 151 7 4 78 25 159 45 80
21 155 41 166 45 11 4 21 4 23 -1 2 -5 -23 -62 -56 -127z m-2947 82 c65 -19
120 -36 122 -38 4 -3 -33 -95 -89 -223 -40 -92 -40 -93 -57 -70 -51 66 -191
337 -191 369 0 15 75 2 215 -38z m453 -148 c351 -134 563 -258 745 -435 l97
-95 -43 -46 c-103 -108 -166 -190 -212 -277 -4 -9 -193 44 -290 82 -152 58
-255 115 -375 205 -102 76 -260 218 -291 262 l-19 26 38 79 c21 43 55 124 77
180 22 57 43 103 47 103 4 0 106 -38 226 -84z m2177 -121 l74 -190 -27 -24
c-15 -13 -52 -47 -82 -75 -118 -112 -314 -253 -435 -313 -110 -55 -387 -143
-450 -143 -2 0 -40 51 -86 113 -45 61 -100 134 -122 160 l-40 48 24 26 c96
106 410 317 653 440 81 41 384 153 405 150 7 -1 45 -85 86 -192z m-1460 -115
c87 -21 221 -30 320 -21 55 5 101 8 102 7 1 -1 -30 -27 -70 -58 -40 -32 -94
-76 -120 -99 l-48 -42 -72 69 c-40 38 -94 89 -122 112 -53 45 -53 47 10 32z
m291 -512 c50 -68 94 -129 99 -137 7 -11 -24 -13 -193 -9 -111 2 -205 7 -208
11 -10 10 186 254 206 256 3 1 46 -54 96 -121z"/>
<path d="M4210 1910 l0 -1780 895 0 895 0 0 195 0 195 -685 0 -685 0 0 650 0
650 630 0 630 0 0 195 0 195 -630 0 -630 0 0 548 0 547 666 -3 667 -2 -7 52
c-3 29 -6 117 -6 196 l0 142 -870 0 -870 0 0 -1780z"/>
<path d="M6630 1910 l0 -1780 895 2 896 3 2 193 2 192 -687 0 -688 0 0 650 0
650 630 0 630 0 0 195 0 195 -630 0 -630 0 0 548 0 547 670 -3 670 -2 0 195 0
195 -880 0 -880 0 0 -1780z"/>
</g>
</svg>
